<mxfile host="app.diagrams.net" modified="2024-07-12T01:59:39.878Z" agent="Mozilla/5.0 (Windows NT 10.0; Win64; x64) AppleWebKit/537.36 (KHTML, like Gecko) Chrome/122.0.0.0 Safari/537.36" version="24.6.5" etag="Z5ge2_WTxj25m7oSTcd0" type="device">
  <diagram id="yUoyeC8CzDRUghe84lRH" name="Page-1">
    <mxGraphModel dx="2899" dy="1103" grid="1" gridSize="10" guides="1" tooltips="1" connect="1" arrows="1" fold="1" page="1" pageScale="1" pageWidth="850" pageHeight="1100" math="0" shadow="0">
      <root>
        <mxCell id="0" />
        <mxCell id="1" parent="0" />
        <mxCell id="9KNZtpV98JF0bAeNBsMH-1" value="Client" style="swimlane;whiteSpace=wrap;html=1;" vertex="1" parent="1">
          <mxGeometry x="-250" y="60" width="290" height="260" as="geometry" />
        </mxCell>
        <mxCell id="9KNZtpV98JF0bAeNBsMH-17" value="&lt;li&gt;&lt;br&gt;&lt;/li&gt;" style="text;html=1;align=center;verticalAlign=middle;resizable=0;points=[];autosize=1;strokeColor=none;fillColor=none;" vertex="1" parent="9KNZtpV98JF0bAeNBsMH-1">
          <mxGeometry x="160" y="210" width="40" height="30" as="geometry" />
        </mxCell>
        <mxCell id="9KNZtpV98JF0bAeNBsMH-48" value="&lt;div style=&quot;text-align: justify;&quot;&gt;public int getClientID()&lt;/div&gt;&lt;div style=&quot;text-align: justify;&quot;&gt;public void setClientID(int clientID)&lt;/div&gt;&lt;div style=&quot;text-align: justify;&quot;&gt;public String getName()&lt;/div&gt;&lt;div style=&quot;text-align: justify;&quot;&gt;public void setName(String name)&lt;/div&gt;&lt;div style=&quot;text-align: justify;&quot;&gt;public String getPhoneNumber()&lt;/div&gt;&lt;div style=&quot;text-align: justify;&quot;&gt;public void setPhoneNumber(String phoneNumber)&lt;/div&gt;&lt;div style=&quot;text-align: justify;&quot;&gt;public String getAddress()&lt;/div&gt;&lt;div style=&quot;text-align: justify;&quot;&gt;public void setAddress(String address)&lt;/div&gt;&lt;div style=&quot;text-align: justify;&quot;&gt;&lt;br&gt;&lt;/div&gt;" style="text;html=1;align=center;verticalAlign=middle;resizable=0;points=[];autosize=1;strokeColor=none;fillColor=none;" vertex="1" parent="9KNZtpV98JF0bAeNBsMH-1">
          <mxGeometry x="-5" y="130" width="300" height="140" as="geometry" />
        </mxCell>
        <mxCell id="9KNZtpV98JF0bAeNBsMH-47" value="&lt;div style=&quot;text-align: justify;&quot;&gt;private int clientID&lt;/div&gt;&lt;div style=&quot;text-align: justify;&quot;&gt;private String name&lt;/div&gt;&lt;div style=&quot;text-align: justify;&quot;&gt;private String phoneNumber&lt;/div&gt;&lt;div style=&quot;text-align: justify;&quot;&gt;private String addres&lt;/div&gt;" style="text;html=1;align=center;verticalAlign=middle;resizable=0;points=[];autosize=1;strokeColor=none;fillColor=none;" vertex="1" parent="9KNZtpV98JF0bAeNBsMH-1">
          <mxGeometry x="-5" y="30" width="170" height="70" as="geometry" />
        </mxCell>
        <mxCell id="9KNZtpV98JF0bAeNBsMH-70" value="" style="endArrow=none;html=1;rounded=0;" edge="1" parent="9KNZtpV98JF0bAeNBsMH-1">
          <mxGeometry width="50" height="50" relative="1" as="geometry">
            <mxPoint y="120" as="sourcePoint" />
            <mxPoint x="290" y="120" as="targetPoint" />
          </mxGeometry>
        </mxCell>
        <mxCell id="9KNZtpV98JF0bAeNBsMH-8" value="Care Profile" style="swimlane;whiteSpace=wrap;html=1;" vertex="1" parent="1">
          <mxGeometry x="-290" y="440" width="360" height="210" as="geometry" />
        </mxCell>
        <mxCell id="9KNZtpV98JF0bAeNBsMH-43" value="&lt;div style=&quot;text-align: justify;&quot;&gt;public int getProfileID()&lt;/div&gt;&lt;div style=&quot;text-align: justify;&quot;&gt;public void setProfileID(int profileID)&lt;/div&gt;&lt;div style=&quot;text-align: justify;&quot;&gt;public String getFeedingInstructions()&lt;/div&gt;&lt;div style=&quot;text-align: justify;&quot;&gt;public void setFeedingInstructions(String feedingInstructions)&lt;/div&gt;&lt;div style=&quot;text-align: justify;&quot;&gt;public String getMedicationList()&lt;/div&gt;&lt;div style=&quot;text-align: justify;&quot;&gt;public void setMedicationList(String medicationList)&lt;/div&gt;" style="text;html=1;align=center;verticalAlign=middle;resizable=0;points=[];autosize=1;strokeColor=none;fillColor=none;" vertex="1" parent="9KNZtpV98JF0bAeNBsMH-8">
          <mxGeometry x="5" y="105" width="350" height="100" as="geometry" />
        </mxCell>
        <mxCell id="9KNZtpV98JF0bAeNBsMH-44" value="&lt;div style=&quot;text-align: justify;&quot;&gt;private int profileID&lt;/div&gt;&lt;div style=&quot;text-align: justify;&quot;&gt;private String feedingInstructions&lt;/div&gt;&lt;div style=&quot;text-align: justify;&quot;&gt;private String medicationList&lt;/div&gt;" style="text;html=1;align=center;verticalAlign=middle;resizable=0;points=[];autosize=1;strokeColor=none;fillColor=none;" vertex="1" parent="9KNZtpV98JF0bAeNBsMH-8">
          <mxGeometry x="10" y="35" width="200" height="60" as="geometry" />
        </mxCell>
        <mxCell id="9KNZtpV98JF0bAeNBsMH-51" value="" style="endArrow=none;html=1;rounded=0;entryX=1.014;entryY=-0.04;entryDx=0;entryDy=0;entryPerimeter=0;" edge="1" parent="9KNZtpV98JF0bAeNBsMH-8" target="9KNZtpV98JF0bAeNBsMH-43">
          <mxGeometry width="50" height="50" relative="1" as="geometry">
            <mxPoint y="105" as="sourcePoint" />
            <mxPoint x="50" y="55" as="targetPoint" />
          </mxGeometry>
        </mxCell>
        <mxCell id="9KNZtpV98JF0bAeNBsMH-12" value="Pet" style="swimlane;whiteSpace=wrap;html=1;" vertex="1" parent="1">
          <mxGeometry x="230" y="30" width="280" height="270" as="geometry" />
        </mxCell>
        <mxCell id="9KNZtpV98JF0bAeNBsMH-23" value="&lt;li&gt;&lt;br&gt;&lt;/li&gt;" style="text;html=1;align=center;verticalAlign=middle;resizable=0;points=[];autosize=1;strokeColor=none;fillColor=none;" vertex="1" parent="9KNZtpV98JF0bAeNBsMH-12">
          <mxGeometry x="155" y="210" width="40" height="30" as="geometry" />
        </mxCell>
        <mxCell id="9KNZtpV98JF0bAeNBsMH-45" value="&lt;div style=&quot;text-align: justify;&quot;&gt;public int getPetID()&lt;/div&gt;&lt;div style=&quot;text-align: justify;&quot;&gt;public void setPetID(int petID)&lt;/div&gt;&lt;div style=&quot;text-align: justify;&quot;&gt;public String getName()&lt;/div&gt;&lt;div style=&quot;text-align: justify;&quot;&gt;public void setName(String name)&lt;/div&gt;&lt;div style=&quot;text-align: justify;&quot;&gt;public String getSpecies()&lt;/div&gt;&lt;div style=&quot;text-align: justify;&quot;&gt;public void setSpecies(String species)&lt;/div&gt;&lt;div style=&quot;text-align: justify;&quot;&gt;public CareProfile getCareProfile()&lt;/div&gt;&lt;div style=&quot;text-align: justify;&quot;&gt;public void setCareProfile(CareProfile careProfile)&lt;/div&gt;" style="text;html=1;align=center;verticalAlign=middle;resizable=0;points=[];autosize=1;strokeColor=none;fillColor=none;" vertex="1" parent="9KNZtpV98JF0bAeNBsMH-12">
          <mxGeometry x="-5" y="120" width="290" height="130" as="geometry" />
        </mxCell>
        <mxCell id="9KNZtpV98JF0bAeNBsMH-46" value="&lt;div style=&quot;text-align: justify;&quot;&gt;private int petID&lt;/div&gt;&lt;div style=&quot;text-align: justify;&quot;&gt;private String name&lt;/div&gt;&lt;div style=&quot;text-align: justify;&quot;&gt;private String species&lt;/div&gt;&lt;div style=&quot;text-align: justify;&quot;&gt;private CareProfile careProfile&lt;/div&gt;&lt;div style=&quot;text-align: justify;&quot;&gt;&lt;br&gt;&lt;/div&gt;" style="text;html=1;align=center;verticalAlign=middle;resizable=0;points=[];autosize=1;strokeColor=none;fillColor=none;" vertex="1" parent="9KNZtpV98JF0bAeNBsMH-12">
          <mxGeometry y="38" width="180" height="90" as="geometry" />
        </mxCell>
        <mxCell id="9KNZtpV98JF0bAeNBsMH-21" value="" style="endArrow=none;html=1;rounded=0;exitX=0;exitY=0.5;exitDx=0;exitDy=0;entryX=1;entryY=0.5;entryDx=0;entryDy=0;" edge="1" parent="9KNZtpV98JF0bAeNBsMH-12">
          <mxGeometry width="50" height="50" relative="1" as="geometry">
            <mxPoint y="110" as="sourcePoint" />
            <mxPoint x="280" y="110" as="targetPoint" />
            <Array as="points" />
          </mxGeometry>
        </mxCell>
        <mxCell id="9KNZtpV98JF0bAeNBsMH-74" value="" style="rhombus;whiteSpace=wrap;html=1;" vertex="1" parent="9KNZtpV98JF0bAeNBsMH-12">
          <mxGeometry x="-20" y="210" width="20" height="20" as="geometry" />
        </mxCell>
        <mxCell id="9KNZtpV98JF0bAeNBsMH-15" value="Reservation" style="swimlane;whiteSpace=wrap;html=1;startSize=23;" vertex="1" parent="1">
          <mxGeometry x="230" y="440" width="270" height="210" as="geometry" />
        </mxCell>
        <mxCell id="9KNZtpV98JF0bAeNBsMH-41" value="&lt;div style=&quot;text-align: justify;&quot;&gt;public int getReservationID()&lt;/div&gt;&lt;div style=&quot;text-align: justify;&quot;&gt;public void setReservationID(int reservationID)&lt;/div&gt;&lt;div style=&quot;text-align: justify;&quot;&gt;public Date getStartDate()&lt;/div&gt;&lt;div style=&quot;text-align: justify;&quot;&gt;public void setStartDate(Date startDate)&lt;/div&gt;&lt;div style=&quot;text-align: justify;&quot;&gt;public Date getEndDate()&lt;/div&gt;&lt;div style=&quot;text-align: justify;&quot;&gt;public void setEndDate(Date endDate)&lt;/div&gt;" style="text;html=1;align=center;verticalAlign=middle;resizable=0;points=[];autosize=1;strokeColor=none;fillColor=none;" vertex="1" parent="9KNZtpV98JF0bAeNBsMH-15">
          <mxGeometry x="-10" y="110" width="270" height="100" as="geometry" />
        </mxCell>
        <mxCell id="9KNZtpV98JF0bAeNBsMH-42" value="&lt;div style=&quot;text-align: justify;&quot;&gt;private int reservationID&lt;/div&gt;&lt;div style=&quot;text-align: justify;&quot;&gt;private Date startDate&lt;/div&gt;&lt;div style=&quot;text-align: justify;&quot;&gt;private Date endDate&lt;/div&gt;" style="text;html=1;align=center;verticalAlign=middle;resizable=0;points=[];autosize=1;strokeColor=none;fillColor=none;" vertex="1" parent="9KNZtpV98JF0bAeNBsMH-15">
          <mxGeometry y="30" width="150" height="60" as="geometry" />
        </mxCell>
        <mxCell id="9KNZtpV98JF0bAeNBsMH-52" value="" style="endArrow=none;html=1;rounded=0;" edge="1" parent="9KNZtpV98JF0bAeNBsMH-15">
          <mxGeometry width="50" height="50" relative="1" as="geometry">
            <mxPoint y="110" as="sourcePoint" />
            <mxPoint x="270" y="110" as="targetPoint" />
          </mxGeometry>
        </mxCell>
        <mxCell id="9KNZtpV98JF0bAeNBsMH-38" value="Billing" style="swimlane;whiteSpace=wrap;html=1;startSize=23;" vertex="1" parent="1">
          <mxGeometry x="440" y="770" width="230" height="190" as="geometry" />
        </mxCell>
        <mxCell id="9KNZtpV98JF0bAeNBsMH-39" value="" style="endArrow=none;html=1;rounded=0;" edge="1" parent="9KNZtpV98JF0bAeNBsMH-38">
          <mxGeometry width="50" height="50" relative="1" as="geometry">
            <mxPoint y="80" as="sourcePoint" />
            <mxPoint x="230" y="80" as="targetPoint" />
          </mxGeometry>
        </mxCell>
        <mxCell id="9KNZtpV98JF0bAeNBsMH-57" value="&lt;div style=&quot;text-align: justify;&quot;&gt;private int billID&lt;/div&gt;&lt;div style=&quot;text-align: justify;&quot;&gt;private double amount&lt;/div&gt;&lt;div style=&quot;text-align: justify;&quot;&gt;private Date dueDate&lt;/div&gt;" style="text;html=1;align=center;verticalAlign=middle;resizable=0;points=[];autosize=1;strokeColor=none;fillColor=none;" vertex="1" parent="9KNZtpV98JF0bAeNBsMH-38">
          <mxGeometry y="20" width="140" height="60" as="geometry" />
        </mxCell>
        <mxCell id="9KNZtpV98JF0bAeNBsMH-59" value="&lt;div style=&quot;text-align: justify;&quot;&gt;public int getBillID()&lt;/div&gt;&lt;div style=&quot;text-align: justify;&quot;&gt;public void setBillID(int billID)&lt;/div&gt;&lt;div style=&quot;text-align: justify;&quot;&gt;public double getAmount()&lt;/div&gt;&lt;div style=&quot;text-align: justify;&quot;&gt;public void setAmount(double amount)&lt;/div&gt;&lt;div style=&quot;text-align: justify;&quot;&gt;public Date getDueDate()&lt;/div&gt;&lt;div style=&quot;text-align: justify;&quot;&gt;public void setDueDate(Date dueDate)&lt;/div&gt;" style="text;html=1;align=center;verticalAlign=middle;resizable=0;points=[];autosize=1;strokeColor=none;fillColor=none;" vertex="1" parent="9KNZtpV98JF0bAeNBsMH-38">
          <mxGeometry y="90" width="230" height="100" as="geometry" />
        </mxCell>
        <mxCell id="9KNZtpV98JF0bAeNBsMH-36" value="Staff" style="swimlane;whiteSpace=wrap;html=1;startSize=23;" vertex="1" parent="1">
          <mxGeometry x="670" y="100" width="200" height="220" as="geometry" />
        </mxCell>
        <mxCell id="9KNZtpV98JF0bAeNBsMH-37" value="" style="endArrow=none;html=1;rounded=0;" edge="1" parent="9KNZtpV98JF0bAeNBsMH-36">
          <mxGeometry width="50" height="50" relative="1" as="geometry">
            <mxPoint y="90" as="sourcePoint" />
            <mxPoint x="200" y="90" as="targetPoint" />
          </mxGeometry>
        </mxCell>
        <mxCell id="9KNZtpV98JF0bAeNBsMH-55" value="&lt;div style=&quot;text-align: justify;&quot;&gt;private int staffID&lt;/div&gt;&lt;div style=&quot;text-align: justify;&quot;&gt;private String name&lt;/div&gt;&lt;div style=&quot;text-align: justify;&quot;&gt;private String role&lt;/div&gt;" style="text;html=1;align=center;verticalAlign=middle;resizable=0;points=[];autosize=1;strokeColor=none;fillColor=none;" vertex="1" parent="9KNZtpV98JF0bAeNBsMH-36">
          <mxGeometry y="20" width="130" height="60" as="geometry" />
        </mxCell>
        <mxCell id="9KNZtpV98JF0bAeNBsMH-56" value="&lt;div style=&quot;text-align: justify;&quot;&gt;public int getStaffID()&lt;/div&gt;&lt;div style=&quot;text-align: justify;&quot;&gt;public void setStaffID(int staffID)&lt;/div&gt;&lt;div style=&quot;text-align: justify;&quot;&gt;public String getName()&lt;/div&gt;&lt;div style=&quot;text-align: justify;&quot;&gt;public void setName(String name)&lt;/div&gt;&lt;div style=&quot;text-align: justify;&quot;&gt;public String getRole()&lt;/div&gt;&lt;div style=&quot;text-align: justify;&quot;&gt;public void setRole(String role)&lt;/div&gt;" style="text;html=1;align=center;verticalAlign=middle;resizable=0;points=[];autosize=1;strokeColor=none;fillColor=none;" vertex="1" parent="9KNZtpV98JF0bAeNBsMH-36">
          <mxGeometry y="110" width="200" height="100" as="geometry" />
        </mxCell>
        <mxCell id="9KNZtpV98JF0bAeNBsMH-32" value="Activity" style="swimlane;whiteSpace=wrap;html=1;startSize=23;" vertex="1" parent="1">
          <mxGeometry x="720" y="630" width="260" height="180" as="geometry" />
        </mxCell>
        <mxCell id="9KNZtpV98JF0bAeNBsMH-63" value="&lt;div style=&quot;text-align: justify;&quot;&gt;private int activityID&lt;/div&gt;&lt;div style=&quot;text-align: justify;&quot;&gt;private String description&lt;/div&gt;" style="text;html=1;align=center;verticalAlign=middle;resizable=0;points=[];autosize=1;strokeColor=none;fillColor=none;" vertex="1" parent="9KNZtpV98JF0bAeNBsMH-32">
          <mxGeometry y="30" width="160" height="40" as="geometry" />
        </mxCell>
        <mxCell id="9KNZtpV98JF0bAeNBsMH-64" value="&lt;div style=&quot;text-align: justify;&quot;&gt;public int getActivityID()&lt;/div&gt;&lt;div style=&quot;text-align: justify;&quot;&gt;public void setActivityID(int activityID)&lt;/div&gt;&lt;div style=&quot;text-align: justify;&quot;&gt;public String getDescription()&lt;/div&gt;&lt;div style=&quot;text-align: justify;&quot;&gt;public void setDescription(String description)&lt;/div&gt;" style="text;html=1;align=center;verticalAlign=middle;resizable=0;points=[];autosize=1;strokeColor=none;fillColor=none;" vertex="1" parent="9KNZtpV98JF0bAeNBsMH-32">
          <mxGeometry y="90" width="260" height="70" as="geometry" />
        </mxCell>
        <mxCell id="9KNZtpV98JF0bAeNBsMH-30" value="Emergency Contact" style="swimlane;whiteSpace=wrap;html=1;startSize=23;" vertex="1" parent="1">
          <mxGeometry x="60" y="770" width="290" height="200" as="geometry" />
        </mxCell>
        <mxCell id="9KNZtpV98JF0bAeNBsMH-31" value="" style="endArrow=none;html=1;rounded=0;" edge="1" parent="9KNZtpV98JF0bAeNBsMH-30">
          <mxGeometry width="50" height="50" relative="1" as="geometry">
            <mxPoint y="89" as="sourcePoint" />
            <mxPoint x="290" y="89" as="targetPoint" />
          </mxGeometry>
        </mxCell>
        <mxCell id="9KNZtpV98JF0bAeNBsMH-60" value="&lt;div style=&quot;text-align: justify;&quot;&gt;private int contactID&lt;/div&gt;&lt;div style=&quot;text-align: justify;&quot;&gt;private String name&lt;/div&gt;&lt;div style=&quot;text-align: justify;&quot;&gt;private String phoneNumber&lt;/div&gt;&lt;div style=&quot;text-align: justify;&quot;&gt;&lt;br&gt;&lt;/div&gt;" style="text;html=1;align=center;verticalAlign=middle;resizable=0;points=[];autosize=1;strokeColor=none;fillColor=none;" vertex="1" parent="9KNZtpV98JF0bAeNBsMH-30">
          <mxGeometry y="25" width="170" height="70" as="geometry" />
        </mxCell>
        <mxCell id="9KNZtpV98JF0bAeNBsMH-61" value="&lt;div style=&quot;text-align: justify;&quot;&gt;public int getContactID()&lt;/div&gt;&lt;div style=&quot;text-align: justify;&quot;&gt;public void setContactID(int contactID)&lt;/div&gt;&lt;div style=&quot;text-align: justify;&quot;&gt;public String getName()&lt;/div&gt;&lt;div style=&quot;text-align: justify;&quot;&gt;public void setName(String name)&lt;/div&gt;&lt;div style=&quot;text-align: justify;&quot;&gt;public String getPhoneNumber()&lt;/div&gt;&lt;div style=&quot;text-align: justify;&quot;&gt;public void setPhoneNumber(String phoneNumber)&lt;/div&gt;" style="text;html=1;align=center;verticalAlign=middle;resizable=0;points=[];autosize=1;strokeColor=none;fillColor=none;" vertex="1" parent="9KNZtpV98JF0bAeNBsMH-30">
          <mxGeometry x="-10" y="100" width="300" height="100" as="geometry" />
        </mxCell>
        <mxCell id="9KNZtpV98JF0bAeNBsMH-34" value="Application" style="swimlane;whiteSpace=wrap;html=1;startSize=23;" vertex="1" parent="1">
          <mxGeometry x="730" y="440" width="220" height="80" as="geometry" />
        </mxCell>
        <mxCell id="9KNZtpV98JF0bAeNBsMH-69" value="public static void main(String[] args)" style="text;html=1;align=center;verticalAlign=middle;resizable=0;points=[];autosize=1;strokeColor=none;fillColor=none;" vertex="1" parent="9KNZtpV98JF0bAeNBsMH-34">
          <mxGeometry y="45" width="210" height="30" as="geometry" />
        </mxCell>
        <mxCell id="9KNZtpV98JF0bAeNBsMH-71" value="" style="endArrow=classic;html=1;rounded=0;" edge="1" parent="1">
          <mxGeometry width="50" height="50" relative="1" as="geometry">
            <mxPoint x="230" y="140" as="sourcePoint" />
            <mxPoint x="40" y="180" as="targetPoint" />
          </mxGeometry>
        </mxCell>
        <mxCell id="9KNZtpV98JF0bAeNBsMH-72" value="1" style="text;html=1;align=center;verticalAlign=middle;resizable=0;points=[];autosize=1;strokeColor=none;fillColor=none;" vertex="1" parent="1">
          <mxGeometry x="45" y="178" width="30" height="30" as="geometry" />
        </mxCell>
        <mxCell id="9KNZtpV98JF0bAeNBsMH-73" value="N" style="text;html=1;align=center;verticalAlign=middle;resizable=0;points=[];autosize=1;strokeColor=none;fillColor=none;" vertex="1" parent="1">
          <mxGeometry x="195" y="138" width="30" height="30" as="geometry" />
        </mxCell>
        <mxCell id="9KNZtpV98JF0bAeNBsMH-76" value="" style="endArrow=none;html=1;rounded=0;exitX=0.778;exitY=0;exitDx=0;exitDy=0;exitPerimeter=0;" edge="1" parent="1" source="9KNZtpV98JF0bAeNBsMH-8">
          <mxGeometry width="50" height="50" relative="1" as="geometry">
            <mxPoint x="160" y="300" as="sourcePoint" />
            <mxPoint x="210" y="250" as="targetPoint" />
          </mxGeometry>
        </mxCell>
        <mxCell id="9KNZtpV98JF0bAeNBsMH-77" value="" style="endArrow=classic;html=1;rounded=0;" edge="1" parent="1" target="9KNZtpV98JF0bAeNBsMH-48">
          <mxGeometry width="50" height="50" relative="1" as="geometry">
            <mxPoint x="260" y="440" as="sourcePoint" />
            <mxPoint x="310" y="390" as="targetPoint" />
          </mxGeometry>
        </mxCell>
        <mxCell id="9KNZtpV98JF0bAeNBsMH-78" value="N" style="text;html=1;align=center;verticalAlign=middle;resizable=0;points=[];autosize=1;strokeColor=none;fillColor=none;" vertex="1" parent="1">
          <mxGeometry x="255" y="408" width="30" height="30" as="geometry" />
        </mxCell>
        <mxCell id="9KNZtpV98JF0bAeNBsMH-79" value="1" style="text;html=1;align=center;verticalAlign=middle;resizable=0;points=[];autosize=1;strokeColor=none;fillColor=none;" vertex="1" parent="1">
          <mxGeometry x="40" y="310" width="30" height="30" as="geometry" />
        </mxCell>
        <mxCell id="9KNZtpV98JF0bAeNBsMH-80" value="" style="endArrow=classic;html=1;rounded=0;" edge="1" parent="1">
          <mxGeometry width="50" height="50" relative="1" as="geometry">
            <mxPoint x="730" y="630" as="sourcePoint" />
            <mxPoint x="490" y="300" as="targetPoint" />
          </mxGeometry>
        </mxCell>
        <mxCell id="9KNZtpV98JF0bAeNBsMH-81" value="N" style="text;html=1;align=center;verticalAlign=middle;resizable=0;points=[];autosize=1;strokeColor=none;fillColor=none;" vertex="1" parent="1">
          <mxGeometry x="725" y="598" width="30" height="30" as="geometry" />
        </mxCell>
        <mxCell id="9KNZtpV98JF0bAeNBsMH-82" value="1" style="text;html=1;align=center;verticalAlign=middle;resizable=0;points=[];autosize=1;strokeColor=none;fillColor=none;" vertex="1" parent="1">
          <mxGeometry x="505" y="298" width="30" height="30" as="geometry" />
        </mxCell>
        <mxCell id="9KNZtpV98JF0bAeNBsMH-83" value="" style="endArrow=classic;html=1;rounded=0;entryX=0;entryY=0.949;entryDx=0;entryDy=0;entryPerimeter=0;" edge="1" parent="1" target="9KNZtpV98JF0bAeNBsMH-56">
          <mxGeometry width="50" height="50" relative="1" as="geometry">
            <mxPoint x="500" y="440" as="sourcePoint" />
            <mxPoint x="550" y="390" as="targetPoint" />
          </mxGeometry>
        </mxCell>
        <mxCell id="9KNZtpV98JF0bAeNBsMH-84" value="N" style="text;html=1;align=center;verticalAlign=middle;resizable=0;points=[];autosize=1;strokeColor=none;fillColor=none;" vertex="1" parent="1">
          <mxGeometry x="495" y="428" width="30" height="30" as="geometry" />
        </mxCell>
        <mxCell id="9KNZtpV98JF0bAeNBsMH-85" value="1" style="text;html=1;align=center;verticalAlign=middle;resizable=0;points=[];autosize=1;strokeColor=none;fillColor=none;" vertex="1" parent="1">
          <mxGeometry x="650" y="320" width="30" height="30" as="geometry" />
        </mxCell>
        <mxCell id="9KNZtpV98JF0bAeNBsMH-86" value="" style="endArrow=classic;html=1;rounded=0;" edge="1" parent="1">
          <mxGeometry width="50" height="50" relative="1" as="geometry">
            <mxPoint x="260" y="780" as="sourcePoint" />
            <mxPoint x="260" y="780" as="targetPoint" />
          </mxGeometry>
        </mxCell>
        <mxCell id="9KNZtpV98JF0bAeNBsMH-87" value="" style="endArrow=classic;html=1;rounded=0;" edge="1" parent="1">
          <mxGeometry width="50" height="50" relative="1" as="geometry">
            <mxPoint x="600" y="770" as="sourcePoint" />
            <mxPoint x="710" y="320" as="targetPoint" />
          </mxGeometry>
        </mxCell>
        <mxCell id="9KNZtpV98JF0bAeNBsMH-88" value="N" style="text;html=1;align=center;verticalAlign=middle;resizable=0;points=[];autosize=1;strokeColor=none;fillColor=none;" vertex="1" parent="1">
          <mxGeometry x="605" y="728" width="30" height="30" as="geometry" />
        </mxCell>
        <mxCell id="9KNZtpV98JF0bAeNBsMH-89" value="1" style="text;html=1;align=center;verticalAlign=middle;resizable=0;points=[];autosize=1;strokeColor=none;fillColor=none;" vertex="1" parent="1">
          <mxGeometry x="705" y="318" width="30" height="30" as="geometry" />
        </mxCell>
        <mxCell id="9KNZtpV98JF0bAeNBsMH-91" value="" style="endArrow=none;html=1;rounded=0;" edge="1" parent="1">
          <mxGeometry width="50" height="50" relative="1" as="geometry">
            <mxPoint x="110" y="770" as="sourcePoint" />
            <mxPoint x="250" y="300" as="targetPoint" />
          </mxGeometry>
        </mxCell>
      </root>
    </mxGraphModel>
  </diagram>
</mxfile>
